<?xml version="1.0" encoding="utf-8"?>
<!-- Generator: Adobe Illustrator 24.0.2, SVG Export Plug-In . SVG Version: 6.00 Build 0)  -->
<svg version="1.1" id="Layer_1" xmlns="http://www.w3.org/2000/svg" xmlns:xlink="http://www.w3.org/1999/xlink" x="0px" y="0px"
	 viewBox="0 0 98.1 14.6" style="enable-background:new 0 0 98.1 14.6;" xml:space="preserve">
<style type="text/css">
	.st0{fill:#ffffff;}
	.st1{fill:#ED2024;}
</style>
<title>logo</title>
<path class="st0" d="M16.9,0.1h1.9v6.7c0.4-0.5,0.9-1,1.5-1.3C20.9,5.2,21.4,5,22,5c0.8,0,1.5,0.3,2,0.9c0.6,0.6,0.9,1.3,0.9,2.1
	v6.3H23V8.6c0-0.5-0.1-1-0.4-1.4c-0.3-0.3-0.7-0.5-1.1-0.5c-0.7,0-1.3,0.3-1.8,0.8c-0.5,0.5-0.8,1.2-0.7,1.9v5h-1.9V0.1z"/>
<path class="st0" d="M35.1,5.1H37v9.3h-1.9v-1.8c-0.7,1.3-2.1,2.1-3.5,2.1c-1.2,0-2.4-0.5-3.1-1.4c-0.9-1-1.4-2.2-1.3-3.6
	c0-1.3,0.5-2.5,1.3-3.4c0.8-0.9,1.9-1.5,3.1-1.5c0.7,0,1.5,0.2,2.1,0.6c0.6,0.4,1.2,0.9,1.5,1.6V5.1z M34,9.8c0-1.6-1.1-2.9-2.5-2.9
	c-0.7,0-1.3,0.3-1.8,0.8c-0.5,0.5-0.7,1.2-0.8,1.9c0,0.8,0.3,1.5,0.7,2.1c0.5,0.6,1.1,0.9,1.8,0.9C32.9,12.6,34,11.3,34,9.8L34,9.8z
	"/>
<path class="st0" d="M41,0.2h2.3v3.2h2.3v2.1h-2.3v8.9H41V5.5h-1.8V3.3H41L41,0.2z"/>
<path class="st1" d="M50.8,3.5h-4.3V0h12.5v3.5h-4.3v10.8h-4L50.8,3.5z"/>
<path class="st1" d="M66.6,14.4c-0.9,0-1.8-0.2-2.7-0.6c-0.8-0.4-1.5-0.9-2.1-1.5c-0.6-0.7-1.1-1.4-1.4-2.3
	c-0.3-0.9-0.5-1.8-0.5-2.8l0,0c0-1,0.2-1.9,0.5-2.8c0.3-0.9,0.8-1.6,1.4-2.3c0.6-0.7,1.4-1.2,2.2-1.6c1.7-0.8,3.7-0.8,5.4,0
	c0.8,0.4,1.5,0.9,2.1,1.5c0.6,0.7,1.1,1.4,1.4,2.3c0.3,0.9,0.5,1.8,0.5,2.8l0,0c0,1-0.2,1.9-0.5,2.8c-0.3,0.9-0.8,1.6-1.4,2.3
	c-0.6,0.7-1.3,1.2-2.2,1.6C68.5,14.2,67.6,14.4,66.6,14.4z M66.6,11c0.5,0,1-0.1,1.4-0.3c0.4-0.2,0.7-0.5,1-0.8
	c0.3-0.4,0.5-0.8,0.6-1.2c0.2-0.5,0.2-0.9,0.2-1.4l0,0c0-0.5-0.1-1-0.2-1.4C69.5,5.4,69.3,5,69,4.7c-0.3-0.3-0.6-0.6-1-0.8
	c-0.4-0.2-0.9-0.3-1.3-0.3c-0.5,0-0.9,0.1-1.3,0.3c-0.4,0.2-0.7,0.5-1,0.8c-0.3,0.3-0.5,0.7-0.7,1.2c-0.1,0.5-0.2,0.9-0.2,1.4l0,0
	c0,0.5,0.1,1,0.2,1.5c0.1,0.4,0.4,0.8,0.7,1.2c0.3,0.3,0.6,0.6,1,0.8C65.8,10.9,66.2,11,66.6,11L66.6,11z"/>
<path class="st0" d="M84,0h1.9v14.3H84v-1.9c-0.7,1.3-2.1,2.1-3.6,2.2c-1.2,0-2.3-0.5-3-1.4c-0.8-0.9-1.3-2.2-1.3-3.4
	c0-1.2,0.4-2.5,1.3-3.4C78.3,5.5,79.4,5,80.6,5c0.7,0,1.4,0.2,2,0.6C83.2,6,83.7,6.5,84,7.1V0z M83.1,9.6c0-1.6-1.2-2.8-2.6-2.8
	c-0.7,0-1.3,0.3-1.8,0.8c-0.5,0.5-0.8,1.2-0.8,2c0,0.8,0.3,1.5,0.7,2c0.5,0.5,1.1,0.9,1.8,0.8C81.9,12.5,83.1,11.2,83.1,9.6
	C83.1,9.6,83.1,9.6,83.1,9.6z"/>
<path class="st0" d="M88.3,9.7c0-1.3,0.5-2.5,1.3-3.3C90.4,5.5,91.6,5,92.7,5c1.2,0,2.3,0.5,3.1,1.4c0.8,0.9,1.3,2.1,1.3,3.3
	c0,1.3-0.5,2.5-1.3,3.4c-0.8,0.9-1.9,1.5-3,1.5c-1.2,0-2.3-0.5-3.2-1.4C88.8,12.3,88.3,11,88.3,9.7z M95.3,9.7c0-0.7-0.3-1.4-0.8-2
	c-0.5-0.5-1.1-0.8-1.8-0.8c-0.7,0-1.4,0.3-1.9,0.8c-0.5,0.5-0.8,1.3-0.8,2c0,0.7,0.3,1.5,0.8,2c0.5,0.5,1.2,0.8,1.8,0.8
	c0.7,0,1.3-0.3,1.8-0.9C95,11.2,95.3,10.5,95.3,9.7z"/>
<polygon class="st0" points="13.6,0.1 11,8.8 8.3,0.1 7.4,0.1 4.7,8.9 2,0.1 0,0.1 4.4,14.5 5,14.5 7.8,5.2 10.7,14.5 11.3,14.5 
	15.7,0.1 "/>
</svg>
