<?xml version="1.0" encoding="utf-8"?>
<!-- Generator: Adobe Illustrator 24.0.2, SVG Export Plug-In . SVG Version: 6.00 Build 0)  -->
<svg version="1.1" id="Capa_1" xmlns="http://www.w3.org/2000/svg" xmlns:xlink="http://www.w3.org/1999/xlink" x="0px" y="0px"
	 viewBox="0 0 40 40" style="enable-background:new 0 0 40 40;" xml:space="preserve">
<style type="text/css">
	.st0{opacity:0.75;fill:#FFFFFF;enable-background:new    ;}
	.st1{fill:#FFFFFF;}
</style>
<path class="st0" d="M35,13.8c0-3.3-2.7-6.1-6.1-6.1c-1.9,0-3.8,0.9-4.9,2.5L22,13l-2,2.8L18,13l-2-2.8c-1.2-1.6-2.9-2.5-4.9-2.5
	C5.6,7.7,5,11.2,5,13.8c0,4.6,7.5,12,15,17.4C27.6,25.5,35,17.8,35,13.8z"/>
<path class="st1" d="M28.9,7.7c3.3,0,6.1,2.7,6.1,6.1c0,4-7.4,11.7-15,17.4C12.5,25.8,5,18.3,5,13.8c0-2.6,0.6-6.1,6.1-6.1
	c2,0,3.7,0.9,4.9,2.5l2,2.8l2,2.8l2-2.8l2-2.8C25.2,8.7,27,7.7,28.9,7.7 M28.9,5.2c-2.7,0-5.3,1.3-6.9,3.5l-2,2.8l-2-2.8
	c-1.6-2.2-4.2-3.5-6.9-3.5c-3.2,0-8.6,1.1-8.6,8.6c0,7.3,12.2,16.7,16,19.4l1.5,1.1l1.5-1.1c1.6-1.2,16-12.2,16-19.4
	C37.5,9.1,33.7,5.2,28.9,5.2L28.9,5.2z"/>
</svg>
