<?xml version="1.0" encoding="utf-8"?>
<!-- Generator: Adobe Illustrator 24.0.2, SVG Export Plug-In . SVG Version: 6.00 Build 0)  -->
<svg version="1.1" id="Layer_1" xmlns="http://www.w3.org/2000/svg" xmlns:xlink="http://www.w3.org/1999/xlink" x="0px" y="0px"
	 viewBox="0 0 24 24" style="enable-background:new 0 0 24 24;" xml:space="preserve">
<style type="text/css">
	.st0{fill-rule:evenodd;clip-rule:evenodd;fill:#FFFFFF;}
</style>
<g id="Layer_17">
	<g>
		<path class="st0" d="M14,17.7c-1.5,0-2.8,0-4.2,0c-0.2-2.3,0.1-4.4,1.9-6c1-0.9,2.1-1.8,3.2-2.7c1-0.8,1.5-1.9,1.1-3.2
			c-0.4-1.3-1.3-2-2.6-2.3C10.7,3,8.6,4.2,7.8,6.8C7.7,6.9,7.7,7.1,7.6,7.3C6.2,7.2,4.9,7,3.5,6.9C3.4,5.9,3.7,5,4.2,4.2
			C5.6,1.5,8,0.3,10.9,0.1c1.9-0.2,3.8,0,5.5,0.9c2.3,1.2,3.9,2.9,4.1,5.7c0.1,1.5-0.5,2.8-1.5,3.9c-0.9,0.9-1.7,1.8-2.7,2.5
			C14.8,14.2,13.6,15.5,14,17.7z"/>
		<path class="st0" d="M13.9,19.5c0,1.5,0,3,0,4.5c-1.4,0-2.7,0-4.1,0c0-1.5,0-3,0-4.5C11.1,19.5,12.5,19.5,13.9,19.5z"/>
	</g>
</g>
</svg>
