<svg id="OBJECTS" xmlns="http://www.w3.org/2000/svg" viewBox="0 0 200 102.34"><defs><style>.cls-1{fill:#bbdefb;}.cls-2{fill:#64b5f6;}.cls-3{fill:#1976d2;}</style></defs><title>toronto_skyline</title><polygon class="cls-1" points="77.45 52.42 58.56 52.42 58.56 55.8 56.42 55.8 56.42 81.11 44.26 81.11 44.26 82.79 38.83 82.79 38.83 102.34 56.42 102.34 60.33 102.34 79.58 102.34 79.58 55.8 77.45 55.8 77.45 52.42"/><rect class="cls-1" x="107.6" y="55.8" width="14.12" height="46.54"/><polygon class="cls-1" points="185.98 75.93 185.98 62.28 184.17 62.28 184.17 59.37 179.62 59.37 179.62 56.03 169.17 56.03 169.17 59.37 168.15 59.37 168.15 62.28 166.34 62.28 166.34 102.34 173.02 102.34 173.02 102.34 194.52 102.34 194.52 100.24 194.52 78.03 194.52 75.93 185.98 75.93"/><polygon class="cls-1" points="143.63 65.88 137.76 65.88 137.76 68.78 126.13 68.78 126.13 102.34 149.39 102.34 149.39 68.78 143.63 68.78 143.63 65.88"/><polygon class="cls-1" points="89.64 60.5 85.25 60.5 85.25 102.34 91.17 102.34 91.17 99.68 97.1 99.68 97.1 57.85 89.64 57.85 89.64 60.5"/><polygon class="cls-1" points="16.23 60.5 14.77 60.5 14.77 81.11 5.43 81.11 5.43 82.79 0 82.79 0 102.34 14.77 102.34 16.23 102.34 21.5 102.34 30.78 102.34 32.24 102.34 32.24 60.5 30.78 60.5 16.23 60.5"/><polygon class="cls-2" points="68.8 44.02 66.36 44.02 66.36 40.29 64.64 40.29 64.64 36.66 58.89 36.66 58.89 40.29 57.18 40.29 57.18 44.02 54.73 44.02 54.73 47.97 53.14 47.97 53.14 102.34 70.39 102.34 70.39 47.97 68.8 47.97 68.8 44.02"/><polygon class="cls-2" points="99.47 74.62 86.77 74.62 86.77 76.83 79.89 76.83 79.89 102.34 99.47 102.34 105.33 102.34 110.47 102.34 110.47 36.77 99.47 36.77 99.47 74.62"/><polygon class="cls-2" points="186.86 80.05 186.86 78.13 172.91 78.13 172.91 49.27 170.57 49.27 170.57 45.41 166.98 45.41 166.98 41.77 153.5 41.77 153.5 45.41 149.9 45.41 149.9 49.27 147.57 49.27 147.57 102.34 169.28 102.34 172.91 102.34 192.79 102.34 192.79 80.05 186.86 80.05"/><polygon class="cls-2" points="40.07 72.23 22.48 72.23 22.48 74.62 22.48 99.94 22.48 102.34 46 102.34 46 74.62 40.07 74.62 40.07 72.23"/><polygon class="cls-2" points="132.43 67.11 113.4 67.11 113.4 69.92 113.4 99.53 113.4 102.34 138.85 102.34 138.85 69.92 132.43 69.92 132.43 67.11"/><polygon class="cls-2" points="12 37.48 5.51 37.48 5.51 41.34 0 41.34 0 102.34 17.51 102.34 17.51 41.34 12 41.34 12 37.48"/><path class="cls-3" d="M198.22,55V53.73h-8.33V55h-1.78v45.05h-4.27V78.92H181c0-2.38-1.82-6-4.06-6s-4.07,3.62-4.07,6h-2.81v21.14h-1.52V66.31h-1.28V61.94h-5.77v4.37h-1.28V95.52H151.7V80.79h-8.23v1.92H140.7V95.52h-4.54V42.93h-4.11v4.93h-6.89v52.2h-3.44V88.23H120V85.15h-5.55v3.08h-1.71v11.83h-10.5V96.61H99.47V91.14H90.29v1.71H82.17v3.76h-.91L79.81,36h1.27a.68.68,0,0,0,.67-.68v-.77s0-.05,0-.08h.72v-3.3h-.72s0-.05,0-.08v-.77a.68.68,0,0,0-.67-.68h-.62V25.41h-.78V13.58h.5v-2h-.93V2.66H77.68v8.92h-.92v2h.5V25.41h-.79v4.24h-.61a.68.68,0,0,0-.68.68v.77a.24.24,0,0,0,0,.08h-.72v3.3h.72a.24.24,0,0,0,0,.08v.77a.68.68,0,0,0,.68.68h1.26L75.6,100.06h-3V83.73H70.94V82.4h-2.6v1.33H66.91V71.57H61.79V69.46h-6v2.11H50.64V89.81A29.19,29.19,0,0,0,31.25,82.7,28.5,28.5,0,0,0,8.76,93.09h0v7H0V105H200V55Z" transform="translate(0 -2.66)"/></svg>