<?xml version="1.0" encoding="utf-8"?>
<!-- Generator: Adobe Illustrator 24.0.2, SVG Export Plug-In . SVG Version: 6.00 Build 0)  -->
<svg version="1.1" id="Layer_1" xmlns="http://www.w3.org/2000/svg" xmlns:xlink="http://www.w3.org/1999/xlink" x="0px" y="0px"
	 viewBox="0 0 24 24" style="enable-background:new 0 0 24 24;" xml:space="preserve">
<style type="text/css">
	.st0{fill-rule:evenodd;clip-rule:evenodd;fill:#FFFFFF;}
</style>
<g id="Layer_25">
	<g>
		<path class="st0" d="M9.6,14.5c-0.6,0-1.1,0-1.6,0c0,1.8,0,3.5,0,5.3c1.8,0,3.6,0,5.4,0v3.8L23.4,20v-0.1c0-6.4,0-12.7,0-19.1
			c0-0.1,0-0.3,0-0.5c-5.2,0-10.4,0-15.5,0c0,2.2,0,4.3,0,6.5c0.6,0,1.1,0,1.7,0c0-1.6,0-3.1,0-4.7c3.1,0,6.2,0,9.3,0
			c-0.8,0.4-1.6,0.7-2.4,1.1l-3.1,1.1V18c-1.3,0-2.5,0-3.8,0C9.6,16.8,9.6,15.7,9.6,14.5z"/>
		<path class="st0" d="M6,15.7c0-0.9,0-1.7,0-2.6c2.1,0,4.1,0,6.1,0c0-1.6,0-3.2,0-4.8c-2,0-4,0-6,0c0-0.9,0-1.6,0-2.6
			c-1.9,1.7-3.7,3.3-5.5,5C2.4,12.3,4.1,14,6,15.7z"/>
	</g>
</g>
</svg>
