<?xml version="1.0" encoding="utf-8"?>
<!-- Generator: Adobe Illustrator 24.0.2, SVG Export Plug-In . SVG Version: 6.00 Build 0)  -->
<svg version="1.1" id="Layer_1" xmlns="http://www.w3.org/2000/svg" xmlns:xlink="http://www.w3.org/1999/xlink" x="0px" y="0px"
	 viewBox="0 0 80 50" style="enable-background:new 0 0 80 50;" xml:space="preserve">
<style type="text/css">
	.st0{fill:#7ECED1;}
	.st1{fill:#BBDEFB;}
	.st2{fill:#64B5F6;}
	.st3{fill:#FFFFFF;}
	.st4{fill:#1976D2;}
</style>
<rect x="0" class="st0" width="80" height="50"/>
<polygon class="st1" points="80,29.8 79.1,29.8 79.1,28.3 74.2,28.3 74.2,29.8 73.7,29.8 73.7,31.2 72.9,31.2 72.9,50 76,50 80,50 
	"/>
<title>ic_profile_preview_default</title>
<polygon class="st1" points="31.3,26.6 22.4,26.6 22.4,28.2 21.4,28.2 21.4,40 15.7,40 15.7,40.8 13.2,40.8 13.2,50 21.4,50 
	23.2,50 32.3,50 32.3,28.2 31.3,28.2 "/>
<rect x="45.4" y="28.2" class="st1" width="6.6" height="21.8"/>
<polygon class="st1" points="62.2,32.9 59.5,32.9 59.5,34.2 54,34.2 54,50 64.9,50 64.9,34.2 62.2,34.2 "/>
<polygon class="st1" points="37,30.4 34.9,30.4 34.9,50 37.7,50 37.7,48.7 40.5,48.7 40.5,29.1 37,29.1 "/>
<polygon class="st2" points="27.2,22.7 26.1,22.7 26.1,20.9 25.3,20.9 25.3,19.2 22.6,19.2 22.6,20.9 21.8,20.9 21.8,22.7 
	20.6,22.7 20.6,24.5 19.9,24.5 19.9,50 28,50 28,24.5 27.2,24.5 "/>
<polygon class="st2" points="41.6,37 35.6,37 35.6,38 32.4,38 32.4,50 41.6,50 44.3,50 46.7,50 46.7,19.3 41.6,19.3 "/>
<polygon class="st2" points="13.8,35.9 5.5,35.9 5.5,37 5.5,48.8 5.5,50 16.5,50 16.5,37 13.8,37 "/>
<polygon class="st2" points="57,33.5 48.1,33.5 48.1,34.8 48.1,48.6 48.1,50 60,50 60,34.8 57,34.8 "/>
<polygon class="st1" points="9.4,30.4 2.6,30.4 1.9,30.4 1.9,40 0,40 0,50 1.9,50 2.6,50 5.1,50 9.4,50 10.1,50 10.1,30.4 "/>
<polygon class="st2" points="0.6,21.4 0.6,19.6 0,19.6 0,50 3.2,50 3.2,21.4 "/>
<polygon class="st2" points="80,38.6 75.9,38.6 75.9,25.1 74.8,25.1 74.8,23.3 73.2,23.3 73.2,21.6 66.9,21.6 66.9,23.3 65.2,23.3 
	65.2,25.1 64.1,25.1 64.1,50 74.2,50 75.9,50 80,50 "/>
<circle class="st3" cx="29.7" cy="12.2" r="4.4"/>
<path class="st4" d="M80,37.7h-0.3c0-1.1-0.9-2.8-1.9-2.8c-1,0-1.9,1.7-1.9,2.8h-1.3v9.9h-0.7V31.8h-0.6v-2h-2.7v2H70v13.7h-4v-6.9
	h-3.9v0.9h-1.3v6h-2.1V20.9h-1.9v2.3h-3.2v24.4H52v-5.5h-0.8v-1.4h-2.6v1.4h-0.8v5.5h-4.9V46h-1.3v-2.6h-4.3v0.8h-3.8V46H33
	l-0.7-28.4H33c0.2,0,0.3-0.1,0.3-0.3V17c0,0,0,0,0,0h0.3v-1.5h-0.3c0,0,0,0,0,0V15c0-0.2-0.1-0.3-0.3-0.3h-0.3v-2h-0.4V7.2h0.2V6.2
	h-0.4V2h-0.7v4.2h-0.4v0.9h0.2v5.5h-0.4v2h-0.3c-0.2,0-0.3,0.1-0.3,0.3v0.4c0,0,0,0,0,0h-0.3v1.5h0.3c0,0,0,0,0,0v0.4
	c0,0.2,0.1,0.3,0.3,0.3h0.6l-0.7,30H29V40h-0.8v-0.6H27V40h-0.7v-5.7h-2.4v-1h-2.8v1h-2.4v8.5c-2.5-2.2-5.7-3.4-9.1-3.3
	C6,39.5,2.5,40.9,0,43.4V50h80V37.7z"/>
</svg>
